<svg xmlns="http://www.w3.org/2000/svg" viewBox="0 0 500 500"><g id="freepik--Stars--inject-138"><path d="M182.57,166.53a3.82,3.82,0,1,0-3.82,3.82A3.82,3.82,0,0,0,182.57,166.53Z" style="fill:#2C95EF"></path><path d="M123,250.54a3.82,3.82,0,1,0-3.82,3.82A3.82,3.82,0,0,0,123,250.54Z" style="fill:#2C95EF"></path><path d="M284.14,372.73a3.82,3.82,0,1,0-3.82,3.82A3.82,3.82,0,0,0,284.14,372.73Z" style="fill:#2C95EF"></path><path d="M202.42,420.08a3.82,3.82,0,1,0-3.81,3.82A3.82,3.82,0,0,0,202.42,420.08Z" style="fill:#2C95EF"></path><path d="M165,210.06a3.82,3.82,0,1,0-3.82,3.82A3.82,3.82,0,0,0,165,210.06Z" style="fill:#2C95EF"></path><path d="M390.3,278a3.82,3.82,0,1,0-3.82,3.82A3.82,3.82,0,0,0,390.3,278Z" style="fill:#2C95EF"></path><path d="M430.77,317A3.82,3.82,0,1,0,427,320.8,3.82,3.82,0,0,0,430.77,317Z" style="fill:#2C95EF"></path><path d="M267.34,128.34a3.82,3.82,0,1,0-3.82,3.82A3.82,3.82,0,0,0,267.34,128.34Z" style="fill:#2C95EF"></path><path d="M281.09,105.43a3.82,3.82,0,1,0-3.82,3.82A3.82,3.82,0,0,0,281.09,105.43Z" style="fill:#2C95EF"></path><path d="M214.64,134.07a1.91,1.91,0,1,0-1.91,1.91A1.91,1.91,0,0,0,214.64,134.07Z" style="fill:#2C95EF"></path><path d="M339.89,161.18a1.91,1.91,0,1,0-1.91,1.91A1.91,1.91,0,0,0,339.89,161.18Z" style="fill:#2C95EF"></path><path d="M127.58,135.22a1.91,1.91,0,1,0-1.91,1.91A1.9,1.9,0,0,0,127.58,135.22Z" style="fill:#2C95EF"></path><path d="M186,200.13a1.91,1.91,0,1,0-1.9,1.91A1.91,1.91,0,0,0,186,200.13Z" style="fill:#2C95EF"></path><path d="M173.4,241.37a1.91,1.91,0,1,0-1.91,1.91A1.91,1.91,0,0,0,173.4,241.37Z" style="fill:#2C95EF"></path><path d="M197.46,343.71a1.91,1.91,0,1,0-1.91,1.91A1.91,1.91,0,0,0,197.46,343.71Z" style="fill:#2C95EF"></path><path d="M116.13,326.91a1.91,1.91,0,1,0-1.91,1.91A1.91,1.91,0,0,0,116.13,326.91Z" style="fill:#2C95EF"></path><path d="M360.89,216.55a1.91,1.91,0,1,0-1.91,1.91A1.91,1.91,0,0,0,360.89,216.55Z" style="fill:#2C95EF"></path><path d="M293.69,364a1.91,1.91,0,1,0-1.91,1.91A1.91,1.91,0,0,0,293.69,364Z" style="fill:#2C95EF"></path><path d="M282.61,394.88a1.91,1.91,0,1,0-1.91,1.91A1.9,1.9,0,0,0,282.61,394.88Z" style="fill:#2C95EF"></path><path d="M438.79,302.85a1.91,1.91,0,1,0-1.91,1.91A1.91,1.91,0,0,0,438.79,302.85Z" style="fill:#2C95EF"></path><circle cx="205.48" cy="186.39" r="1.91" style="fill:#2C95EF"></circle><circle cx="352.49" cy="286.43" r="1.91" style="fill:#2C95EF"></circle><circle cx="165.38" cy="161.18" r="1.91" style="fill:#2C95EF"></circle><g style="opacity:0.8"><path d="M182.57,166.53a3.82,3.82,0,1,0-3.82,3.82A3.82,3.82,0,0,0,182.57,166.53Z" style="fill:#fff"></path><path d="M123,250.54a3.82,3.82,0,1,0-3.82,3.82A3.82,3.82,0,0,0,123,250.54Z" style="fill:#fff"></path><path d="M284.14,372.73a3.82,3.82,0,1,0-3.82,3.82A3.82,3.82,0,0,0,284.14,372.73Z" style="fill:#fff"></path><path d="M202.42,420.08a3.82,3.82,0,1,0-3.81,3.82A3.82,3.82,0,0,0,202.42,420.08Z" style="fill:#fff"></path><path d="M165,210.06a3.82,3.82,0,1,0-3.82,3.82A3.82,3.82,0,0,0,165,210.06Z" style="fill:#fff"></path><path d="M390.3,278a3.82,3.82,0,1,0-3.82,3.82A3.82,3.82,0,0,0,390.3,278Z" style="fill:#fff"></path><path d="M430.77,317A3.82,3.82,0,1,0,427,320.8,3.82,3.82,0,0,0,430.77,317Z" style="fill:#fff"></path><path d="M267.34,128.34a3.82,3.82,0,1,0-3.82,3.82A3.82,3.82,0,0,0,267.34,128.34Z" style="fill:#fff"></path><path d="M281.09,105.43a3.82,3.82,0,1,0-3.82,3.82A3.82,3.82,0,0,0,281.09,105.43Z" style="fill:#fff"></path><path d="M214.64,134.07a1.91,1.91,0,1,0-1.91,1.91A1.91,1.91,0,0,0,214.64,134.07Z" style="fill:#fff"></path><path d="M339.89,161.18a1.91,1.91,0,1,0-1.91,1.91A1.91,1.91,0,0,0,339.89,161.18Z" style="fill:#fff"></path><path d="M127.58,135.22a1.91,1.91,0,1,0-1.91,1.91A1.9,1.9,0,0,0,127.58,135.22Z" style="fill:#fff"></path><path d="M186,200.13a1.91,1.91,0,1,0-1.9,1.91A1.91,1.91,0,0,0,186,200.13Z" style="fill:#fff"></path><path d="M173.4,241.37a1.91,1.91,0,1,0-1.91,1.91A1.91,1.91,0,0,0,173.4,241.37Z" style="fill:#fff"></path><path d="M197.46,343.71a1.91,1.91,0,1,0-1.91,1.91A1.91,1.91,0,0,0,197.46,343.71Z" style="fill:#fff"></path><path d="M116.13,326.91a1.91,1.91,0,1,0-1.91,1.91A1.91,1.91,0,0,0,116.13,326.91Z" style="fill:#fff"></path><path d="M360.89,216.55a1.91,1.91,0,1,0-1.91,1.91A1.91,1.91,0,0,0,360.89,216.55Z" style="fill:#fff"></path><path d="M293.69,364a1.91,1.91,0,1,0-1.91,1.91A1.91,1.91,0,0,0,293.69,364Z" style="fill:#fff"></path><path d="M282.61,394.88a1.91,1.91,0,1,0-1.91,1.91A1.9,1.9,0,0,0,282.61,394.88Z" style="fill:#fff"></path><path d="M438.79,302.85a1.91,1.91,0,1,0-1.91,1.91A1.91,1.91,0,0,0,438.79,302.85Z" style="fill:#fff"></path><circle cx="205.48" cy="186.39" r="1.91" style="fill:#fff"></circle><circle cx="352.49" cy="286.43" r="1.91" style="fill:#fff"></circle><circle cx="165.38" cy="161.18" r="1.91" style="fill:#fff"></circle></g></g><g id="freepik--Character--inject-138"><path d="M252.55,231s-10.34.42-16.3-2.13-10.77.29-12.47,4.82,1.56,9.36,9.78,13.89,13.61,3.4,16.87-.28S257.94,234.5,252.55,231Z" style="fill:#fff"></path><path d="M243.13,251c-2.61,0-5.84-.83-9.81-3-10.58-5.84-11.28-11.11-10-14.5a9.3,9.3,0,0,1,5-5.4,10.17,10.17,0,0,1,8.12.29c5.78,2.48,16,2.09,16.08,2.09h.16l.14.09a6.05,6.05,0,0,1,2.72,4.45c.61,4.58-2.59,10.16-4.75,12.6A9.87,9.87,0,0,1,243.13,251Zm-11.26-22.63a8,8,0,0,0-3.15.63,8.31,8.31,0,0,0-4.47,4.83c-2.06,5.48,4.06,10.24,9.55,13.27,7.08,3.91,12.7,3.85,16.25-.17,2.2-2.48,5-7.78,4.51-11.8a5.1,5.1,0,0,0-2.15-3.67c-1.4,0-10.71.25-16.35-2.17A10.77,10.77,0,0,0,231.87,228.37Z" style="fill:#263238"></path><path d="M249,234.39s-6,.53-7.71.53-2.34-1.34-3.34-.33-3.68-1.68-3.68-1.68a5.3,5.3,0,0,1-2,5c-2.67,2.34,1.68,9.36,16.73,7.69S249,234.39,249,234.39Z" style="opacity:0.17"></path><path d="M233,228.27a9.83,9.83,0,0,0-6.23-1.85c-3.83.14-7.51,6-7.37,8.08.17,2.6,3.82,6.38,7.37,7.37S235.4,235.21,233,228.27Z" style="fill:#263238"></path><path d="M227.4,242.46a2.88,2.88,0,0,1-.78-.11c-3.64-1-7.54-5-7.73-7.81-.09-1.39,1.13-3.87,2.85-5.78a7.52,7.52,0,0,1,5-2.84,10.18,10.18,0,0,1,6.57,2l.11.09.05.13a13,13,0,0,1-2.57,12.52A5.06,5.06,0,0,1,227.4,242.46Zm-.26-15.54h-.36a6.57,6.57,0,0,0-4.3,2.51c-1.69,1.87-2.66,4.07-2.59,5,.14,2.23,3.47,5.93,7,6.92,1,.27,2.16-.26,3.28-1.46a11.93,11.93,0,0,0,2.4-11.36A9.57,9.57,0,0,0,227.14,226.92Z" style="fill:#263238"></path><path d="M204.36,227.27a13.52,13.52,0,0,1-5-5.52c-1.42-3.41,2.55-9.08,5.1-9.08s4,2.41,2.84,4.82-2.69,6.38-2.13,7.66S205.36,228.41,204.36,227.27Z" style="fill:#fff"></path><path d="M204.9,228.11a1.2,1.2,0,0,1-.86-.45,13.86,13.86,0,0,1-5.1-5.72c-.87-2.1.11-4.8,1.32-6.62,1-1.52,2.67-3.15,4.24-3.15a3.65,3.65,0,0,1,3.17,1.66,4,4,0,0,1,.12,3.88c-1.59,3.38-2.48,6.42-2.12,7.23.45,1,.42,2.57-.31,3A.84.84,0,0,1,204.9,228.11Zm0-1h0Zm-.44-13.94c-1,0-2.33,1.09-3.41,2.71s-2,3.94-1.23,5.67a13.12,13.12,0,0,0,4.76,5.29l.12.1.12.13a2.49,2.49,0,0,0-.1-1.72c-.75-1.69,1.44-6.6,2.13-8.07a3,3,0,0,0-.06-2.92A2.69,2.69,0,0,0,204.5,213.17Z" style="fill:#263238"></path><path d="M229.73,227.7a48.35,48.35,0,0,1-3.11-8.65c-1.28-5-3-5.53-5-5.53s-3.26,3-5,3.69-6.09-.43-8.64.43-3.69,6.8-2.27,10.2,5.95,6.95,10.77,8.22,6.52,1.42,6.95,1.28S230.73,235.21,229.73,227.7Z" style="fill:#fff"></path><path d="M223.1,237.87a33.29,33.29,0,0,1-6.68-1.33c-4.92-1.3-9.59-4.88-11.1-8.51a11.72,11.72,0,0,1,.29-8.45,4.17,4.17,0,0,1,2.28-2.42,14.85,14.85,0,0,1,5.08-.28,10.27,10.27,0,0,0,3.53-.13,6.05,6.05,0,0,0,1.83-1.59c1-1,2-2.14,3.33-2.14,2.42,0,4.18,1,5.44,5.91a48.34,48.34,0,0,0,3.08,8.54l0,.16c.75,5.71-2.88,9-6.54,10.17A1.86,1.86,0,0,1,223.1,237.87ZM210.75,217.8a8.22,8.22,0,0,0-2.54.31,3.32,3.32,0,0,0-1.69,1.88,10.8,10.8,0,0,0-.28,7.66c1.38,3.31,5.87,6.72,10.44,7.93,5.66,1.5,6.57,1.31,6.66,1.28,1.63-.52,6.7-2.66,5.91-9a49.5,49.5,0,0,1-3.12-8.66c-1.22-4.77-2.75-5.16-4.47-5.16-.93,0-1.74.88-2.59,1.82a6.9,6.9,0,0,1-2.18,1.83,10.29,10.29,0,0,1-4,.21C212.22,217.84,211.47,217.8,210.75,217.8Z" style="fill:#263238"></path><path d="M205.06,200.39l-7.78,4.53a1,1,0,0,0-.25,1.46l15.7,18.44A1,1,0,0,0,214,225l6.65-4.59a1,1,0,0,0,.21-1.39L206.3,200.63A1,1,0,0,0,205.06,200.39Z" style="fill:#263238"></path><path d="M213.46,225.66a1.45,1.45,0,0,1-1.11-.52l-15.7-18.43a1.47,1.47,0,0,1,.38-2.22L204.8,200a1.48,1.48,0,0,1,1.89.36l14.57,18.38a1.45,1.45,0,0,1,.3,1.12,1.49,1.49,0,0,1-.61,1l-6.65,4.58A1.46,1.46,0,0,1,213.46,225.66Zm-7.92-24.9a.39.39,0,0,0-.23.07l-7.77,4.52a.46.46,0,0,0-.23.33.48.48,0,0,0,.1.38l15.7,18.44a.47.47,0,0,0,.62.08l6.65-4.59a.4.4,0,0,0,.19-.31.46.46,0,0,0-.09-.36l-14.57-18.38A.49.49,0,0,0,205.54,200.76Zm-.48-.36h0Z" style="fill:#263238"></path><path d="M221.66,215.37s-4.26,3.4-7.09,1,2.55-7.94,7.09-8.08,5.66,10.63,5.52,12.9" style="fill:#fff"></path><path d="M227.18,221.68h0a.52.52,0,0,1-.47-.53c.12-1.82-.63-9-3.09-11.49a2.48,2.48,0,0,0-1.92-.88c-3.06.1-6.46,2.82-7.22,5a1.83,1.83,0,0,0,.44,2.19c2.49,2.12,6.41-1,6.45-1a.51.51,0,0,1,.71.07.52.52,0,0,1-.08.71c-.19.15-4.61,3.63-7.73,1a2.83,2.83,0,0,1-.74-3.28c.89-2.53,4.64-5.57,8.14-5.68A3.43,3.43,0,0,1,224.3,209c2.88,3,3.49,10.57,3.38,12.25A.5.5,0,0,1,227.18,221.68Z" style="fill:#263238"></path><path d="M209.61,232.52s-5.53-2.84-6.52-5.81,1.13-10.49,4.25-11.34,3.54,2,3.26,4.39-1,4.25-.57,6.1,2.84,3.4,2.84,5.38S210.46,233.23,209.61,232.52Z" style="fill:#fff"></path><path d="M211,233.45a2.8,2.8,0,0,1-1.67-.51c-.58-.31-5.71-3.06-6.72-6.08-.69-2.08,0-6.11,1.52-9a5.61,5.61,0,0,1,3.08-3,3,3,0,0,1,2.85.41c1.18,1,1.21,3,1,4.53-.1.79-.23,1.5-.36,2.19a9.1,9.1,0,0,0-.22,3.73,6.42,6.42,0,0,0,1.27,2.17,5.7,5.7,0,0,1,1.58,3.33,2,2,0,0,1-1.19,2A2.71,2.71,0,0,1,211,233.45Zm-2.63-17.74a3.47,3.47,0,0,0-.9.14,4.7,4.7,0,0,0-2.45,2.51c-1.38,2.57-2.06,6.39-1.46,8.19.92,2.75,6.22,5.5,6.28,5.52l.09.06a2,2,0,0,0,1.83.17,1.06,1.06,0,0,0,.61-1.06,5,5,0,0,0-1.37-2.72,7,7,0,0,1-1.45-2.55,9.94,9.94,0,0,1,.21-4.15c.12-.67.25-1.37.34-2.12.21-1.76,0-3.09-.69-3.65A1.57,1.57,0,0,0,208.37,215.71Z" style="fill:#263238"></path><path d="M215.91,235.56s-9.14-1.41-8.29-8.71c.33-2.83,2.13-7.8,5.25-7.8s1.41,7.23,1.41,7.23,1.56-2.41,5.39.57" style="fill:#fff"></path><path d="M215.91,236.06h-.07c-.1,0-9.62-1.57-8.71-9.26.31-2.69,2.13-8.24,5.74-8.24a2,2,0,0,1,1.61.77c1.05,1.32.81,4.11.54,5.78a3.11,3.11,0,0,1,.67-.19c1.25-.22,2.69.3,4.29,1.54a.51.51,0,0,1,.09.71.52.52,0,0,1-.71.08,4.91,4.91,0,0,0-3.48-1.35,1.8,1.8,0,0,0-1.18.67l-1.51,2.23.61-2.62c.3-1.31.89-5-.1-6.23a1,1,0,0,0-.83-.39c-2.75,0-4.45,4.79-4.75,7.36-.79,6.73,7.52,8.1,7.87,8.15a.51.51,0,0,1,.42.57A.51.51,0,0,1,215.91,236.06Z" style="fill:#263238"></path><ellipse cx="268.48" cy="178.21" rx="31.17" ry="30.56" style="fill:#fff"></ellipse><path d="M268.48,209.27c-17.47,0-31.67-13.94-31.67-31.06s14.2-31.06,31.67-31.06,31.67,13.94,31.67,31.06S285.94,209.27,268.48,209.27Zm0-61.12c-16.91,0-30.67,13.49-30.67,30.06s13.76,30.06,30.67,30.06,30.67-13.49,30.67-30.06S285.39,148.15,268.48,148.15Z" style="fill:#263238"></path><ellipse cx="268.48" cy="178.21" rx="25.02" ry="24.53" style="opacity:0.17"></ellipse><path d="M299.65,178.21a30.26,30.26,0,0,0-12-24.06c2.87,30-14.35,19.19-34.84,25.17-7,2-11.36,4.91-14.15,7.87a31.11,31.11,0,0,0,29.8,21.57C285.69,208.76,299.65,195.08,299.65,178.21Z" style="fill:#263238"></path><path d="M268.48,209.27a31.45,31.45,0,0,1-30.28-21.93l-.09-.28.2-.22c3.29-3.48,8.13-6.18,14.38-8A73,73,0,0,1,269,176.47c6.84-.44,12.25-.78,15.4-4.48,2.75-3.22,3.63-8.88,2.77-17.8l-.1-1.14.91.7a30.68,30.68,0,0,1,12.17,24.46C300.15,195.33,285.94,209.27,268.48,209.27Zm-29.24-22a30.45,30.45,0,0,0,29.24,21c16.91,0,30.67-13.49,30.67-30.06a29.65,29.65,0,0,0-10.88-23c.69,8.54-.3,14.08-3.11,17.38-3.43,4-9.3,4.39-16.1,4.83A72.28,72.28,0,0,0,253,179.8C247,181.53,242.4,184.06,239.24,187.32Z" style="fill:#263238"></path><path d="M253.82,160.1a4.79,4.79,0,1,1-6.76,0A4.79,4.79,0,0,1,253.82,160.1Z" style="fill:#fff"></path><path d="M250.44,168.77h0a5.29,5.29,0,0,1-3.73-9,5.29,5.29,0,0,1,3.74-1.54h0a5.26,5.26,0,0,1,3.74,1.55h0a5.29,5.29,0,0,1-3.74,9Zm0-9.57a4.29,4.29,0,0,0,0,8.57h0a4.27,4.27,0,0,0,4.28-4.28,4.24,4.24,0,0,0-1.25-3h0a4.25,4.25,0,0,0-3-1.26Z" style="fill:#263238"></path><path d="M244.36,252.25s-20.72,1.11-32.08,4.9-14.71,6.24-15.15,11.59-.23,10.69,12.48,14.7,26.29,3.12,36.31,2,12.48-10.7,12.48-18.05S250.6,251.8,244.36,252.25Z" style="fill:#fff"></path><path d="M230.9,286.89a71.54,71.54,0,0,1-21.45-3c-12.68-4-13.3-9.49-12.82-15.22.46-5.54,3.79-8.12,15.49-12,11.25-3.75,31.82-4.91,32.21-4.93,2.76-.19,6,1.2,8.79,3.84,3.56,3.32,5.78,7.85,5.78,11.81,0,5.14-1.26,17.25-12.92,18.55A137.59,137.59,0,0,1,230.9,286.89Zm13.95-34.16-.45,0h0c-.21,0-20.78,1.15-31.95,4.88s-14.4,6.13-14.81,11.15c-.38,4.5-.84,10.09,12.13,14.19,12.45,3.93,25.84,3.12,36.11,2,10.86-1.21,12-12.67,12-17.55,0-3.69-2.09-7.94-5.46-11.08C250,254,247.23,252.73,244.85,252.73Zm-.49-.48h0Z" style="fill:#263238"></path><path d="M241.61,263l-2.68,8s-6.69-8.7-7.35-5.35,0,5.68-1,5.68-3.68-2.67-3.68-1.33a3.44,3.44,0,0,1-1.33,2.34,13.6,13.6,0,0,0-3.35-1h-3.68c-1.34,0-4.68-2.34-4.68-2.34s-1.67,2-1.67,3.35.67,10,4,11.37,18.06,1.34,22.07.67,10.37-.67,10.71-3.68S244.28,259.33,241.61,263Z" style="opacity:0.17"></path><path d="M229.19,278.38c-7.52,0-16.46-.88-16.55-.89a.5.5,0,0,1-.45-.55.5.5,0,0,1,.55-.45c.09,0,9,.89,16.45.89s16.83-.44,16.92-.44a.5.5,0,0,1,.53.47.51.51,0,0,1-.48.53C246.07,277.94,236.7,278.38,229.19,278.38Z" style="fill:#263238"></path><path d="M182,330.45s-4.9,8.91-7.13,10.91S166,342.48,156,336s-17.6-17.38-18.94-22.51a7.57,7.57,0,0,1,6.46-9.8c4.46-.45,8.47,6.46,13.15,8.47a25.24,25.24,0,0,0,12.92,2C173.33,313.74,184,323.76,182,330.45Z" style="fill:#fff"></path><path d="M171.63,342.8c-3.36,0-8.65-1.66-15.95-6.36-10.22-6.59-17.81-17.66-19.16-22.8a8.46,8.46,0,0,1,1.13-7.06,8,8,0,0,1,5.77-3.37c2.83-.29,5.33,2,8,4.44a21.55,21.55,0,0,0,5.42,4.07,25,25,0,0,0,12.67,2c2.15-.24,6.12,2.37,9.25,6.1,3.28,3.91,4.65,7.85,3.77,10.81l0,.1c-.21.36-5,9-7.24,11.05A5.3,5.3,0,0,1,171.63,342.8Zm-27.74-38.61a2.23,2.23,0,0,0-.37,0,7,7,0,0,0-5.05,2.94,7.47,7.47,0,0,0-1,6.24c1.3,5,8.72,15.76,18.73,22.21,9.74,6.27,16.33,7.2,18.33,5.39s6.62-10,7-10.74c.76-2.63-.54-6.21-3.59-9.83-2.83-3.38-6.59-5.95-8.36-5.74a25.92,25.92,0,0,1-13.18-2,22.37,22.37,0,0,1-5.71-4.25C148.37,306.23,146.14,304.19,143.89,304.19ZM182,330.45h0Z" style="fill:#263238"></path><path d="M190.5,270.5s-9.72,9.92-14.4,19.95-8.19,17.83-5.41,23.4c.85,1.72,7.4,10.48,12.74,10.48s23.23-13.8,28.47-28.47c2.7-7.56,1.83-12.63,1.83-12.63S197.37,261.26,190.5,270.5Z" style="fill:#fff"></path><path d="M183.43,324.83c-5.68,0-12.4-9.16-13.19-10.76-3-5.92.92-14.22,5.41-23.83s13.92-19.51,14.46-20.07a5.66,5.66,0,0,1,4.69-2.44c7.92,0,18.87,14.58,19.33,15.2l.07.1,0,.12c0,.21.86,5.28-1.85,12.88C207.25,310.37,189.3,324.83,183.43,324.83Zm11.37-56.1a4.64,4.64,0,0,0-3.9,2.07l-.05.05c-.09.1-9.71,10-14.3,19.81-4.37,9.38-8.15,17.47-5.42,23,.73,1.45,7.16,10.2,12.3,10.2s22.72-13.38,28-28.13c2.41-6.73,1.93-11.48,1.83-12.27C212.26,282.13,201.9,268.73,194.8,268.73Zm-4.3,1.77h0Z" style="fill:#263238"></path><path d="M205.15,274.05s-7.69-6.69-6.35-.33,3.68,12.7,2.34,16c-1.17,2.93-6.35,4-5,4.68s5-3-.33,1.67-7,4.69-6.69,6.69a10.06,10.06,0,0,0,1,3c.34,1-2.67,5-4.34,8s-6.38,4.24-4.35,7.36,10.7-4.68,14.38-7.69,8.36-5.36,10.37-9.7,5-10,5.68-15.72C211.84,288.1,214.18,277.06,205.15,274.05Z" style="opacity:0.17"></path><path d="M182.36,323.43l-.17,0a.5.5,0,0,1-.3-.64c.09-.26,2.33-6.44,5.58-8.29,2.52-1.45,4.18-4.19,5.94-7.09.33-.55.67-1.11,1-1.66a15.67,15.67,0,0,1,4.08-4,23.1,23.1,0,0,0,5.74-5.79c3.46-5.2,5.25-17.07,5.27-17.19a.51.51,0,0,1,.57-.42.5.5,0,0,1,.42.57c-.08.49-1.84,12.21-5.43,17.6a24.13,24.13,0,0,1-6,6,14.71,14.71,0,0,0-3.85,3.77c-.34.55-.68,1.1-1,1.65-1.83,3-3.55,5.86-6.3,7.43-2.93,1.68-5.11,7.71-5.13,7.77A.5.5,0,0,1,182.36,323.43Z" style="fill:#263238"></path><path d="M163.75,326c-6.69-2.45-12.7-7.35-13.82-10.92-.89-2.84-3.47-8.8-4.48-11.09a4.66,4.66,0,0,0-2-.27,7.57,7.57,0,0,0-6.46,9.8c1.34,5.13,8.91,16.05,18.94,22.51s16.71,7.35,18.94,5.34c1.34-1.21,3.67-4.94,5.29-7.71C176.26,329,169.91,328.25,163.75,326Z" style="fill:#fff"></path><path d="M171.63,342.8c-3.36,0-8.65-1.66-15.95-6.36-10.22-6.59-17.81-17.66-19.16-22.8a8.46,8.46,0,0,1,1.13-7.06,8,8,0,0,1,5.77-3.37,5.21,5.21,0,0,1,2.19.29l.2.08.09.2c1.06,2.4,3.62,8.3,4.51,11.14,1.1,3.52,7.16,8.27,13.51,10.6,1.54.57,3.11,1,4.63,1.5,4.62,1.4,9,2.72,12,6.31l.22.27-.18.31c-1.69,2.88-4,6.58-5.39,7.83A5.3,5.3,0,0,1,171.63,342.8Zm-27.78-38.61-.33,0a7,7,0,0,0-5.05,2.94,7.47,7.47,0,0,0-1,6.24c1.3,5,8.72,15.76,18.73,22.21,9.74,6.27,16.33,7.19,18.33,5.39,1-.88,2.76-3.46,5-7.28-2.83-3.17-6.95-4.41-11.31-5.73-1.53-.47-3.12-.94-4.69-1.52h0c-6.71-2.46-12.92-7.4-14.11-11.24-.85-2.72-3.28-8.33-4.38-10.84A4.29,4.29,0,0,0,143.85,304.19Z" style="fill:#263238"></path><path d="M177.62,337.8c-2.33-3.66-7.58-5.2-13.21-7.35-7.57-2.9-18.71-12-19.6-18.27-.64-4.5-2.78-6.79-3.93-7.72a7.63,7.63,0,0,0-3.87,9.05c1.34,5.13,8.91,16.05,18.94,22.51s16.71,7.35,18.94,5.34A20.83,20.83,0,0,0,177.62,337.8Z" style="fill:#fff"></path><path d="M171.63,342.8c-3.36,0-8.65-1.66-15.95-6.36-10.22-6.59-17.81-17.66-19.16-22.8a8.15,8.15,0,0,1,4.13-9.63l.29-.14.25.2a12.24,12.24,0,0,1,4.11,8C146.14,318,156.79,327,164.59,330l2.14.8c4.93,1.83,9.19,3.42,11.32,6.75l.17.27-.18.27a20.5,20.5,0,0,1-2.82,3.67A5.3,5.3,0,0,1,171.63,342.8Zm-30.82-37.74a7.16,7.16,0,0,0-3.32,8.33c1.3,5,8.72,15.76,18.73,22.21,9.74,6.27,16.33,7.19,18.33,5.39A18,18,0,0,0,177,337.8c-2-2.87-6-4.36-10.64-6.08l-2.14-.81c-7.18-2.74-19-12-19.93-18.66A11.43,11.43,0,0,0,140.81,305.06Z" style="fill:#263238"></path><path d="M166.15,314.72s11.52,6.29,16.24,15.19a5.34,5.34,0,0,0,3.31-3.84c.88-3.14-5.41-9.78-11.52-12.92S165.8,311.4,166.15,314.72Z" style="fill:#2C95EF"></path><path d="M182.13,330.5l-.19-.35c-4.58-8.67-15.92-14.93-16-15l-.23-.12,0-.27c-.21-2,.51-2.93,1.15-3.36,1.45-1,4-.56,7.61,1.3,6.11,3.14,12.75,10,11.78,13.5a5.83,5.83,0,0,1-3.67,4.18Zm-15.51-16.09c1.69,1,11.48,6.75,16,14.87a5,5,0,0,0,2.61-3.34c.76-2.73-5.14-9.19-11.27-12.35-4.26-2.19-6-1.79-6.59-1.36A2.28,2.28,0,0,0,166.62,314.41Z" style="fill:#263238"></path><path d="M191,269.32s1.47-8.06,12.45-9.28,13.92,20,10.5,25.63C214,285.67,203,269.81,191,269.32Z" style="fill:#263238"></path><path d="M214,286.59l-.44-.63c-.11-.16-11-15.67-22.56-16.14l-.57,0,.1-.56c0-.09,1.66-8.44,12.89-9.69,3.42-.38,6.42,1.29,8.67,4.82,4.07,6.38,4.75,17.56,2.31,21.57Zm-22.34-17.73c10.55.87,20,12.83,22.24,15.86,1.8-4.22,1-14.17-2.65-19.82-2.06-3.24-4.66-4.71-7.72-4.36C194.7,261.52,192.23,267.07,191.66,268.86Z" style="fill:#263238"></path><path d="M301.46,192.46a16.53,16.53,0,0,1,16-2.77c9.3,3.28,11.21,27.75,7.63,51.21s-10.7,29.51-19.8,29.51S291,266.88,291,258.3,301.46,192.46,301.46,192.46Z" style="fill:#fff"></path><path d="M305.26,270.91c-4.84,0-8.39-1-10.87-2.94s-3.93-5.34-3.93-9.67c0-8.52,10.08-63.59,10.5-65.93l0-.16.12-.12a17.21,17.21,0,0,1,16.49-2.87c9.87,3.48,11.48,28.67,8,51.75-3.2,21-9.27,29.94-20.3,29.94Zm-3.34-78.18c-.64,3.51-10.46,57.37-10.46,65.57,0,4.06,1.16,7,3.56,8.89s5.7,2.72,10.24,2.72h0c7.36,0,15.4-3.46,19.31-29.09,3.37-22.12,2-47.39-7.31-50.66A16.16,16.16,0,0,0,301.92,192.73Z" style="fill:#263238"></path><path d="M303.44,197.14s4-5.91,13.15-3S323,211.36,323,222.91s-7,37.58-10.47,41.34-13.69,4.29-15.83.8S304.78,206.8,303.44,197.14Z" style="opacity:0.17"></path><path d="M307.64,215.93c0-15.6-6.46-32.53-10.47-32.31,0,0-30.53,17.61-36.54,24.07-5.71,6.13-13.62,27.5-13.08,34-.5.6-2.05,2.59-1.88,4.25-1.63,3.28-4.43,9.62-4.43,14.51,0,6.91,1.56,19.83,8.25,22.95s26.29,7.58,35.43,2.68c8.33-4.47,12.38-14.69,11.34-22.87a6.34,6.34,0,0,0,1.13-.75,3.52,3.52,0,0,0,.81-4.85C307.18,250.23,307.64,228.83,307.64,215.93Z" style="fill:#fff"></path><path d="M273.69,288.82c-9.5,0-20.28-3-24.41-4.92-8.3-3.87-8.54-21.42-8.54-23.41,0-4.91,2.74-11.21,4.42-14.61-.09-1.66,1.19-3.46,1.88-4.31-.35-6.65,7.36-27.92,13.22-34.22s35.41-23.44,36.66-24.16l.1-.06h.12a3.11,3.11,0,0,1,2.21,1c4.07,3.85,8.79,18.57,8.79,31.78,0,10.11,0,33.62-9.3,41.83a4,4,0,0,1-1.13,5.12,7.1,7.1,0,0,1-.91.64c.84,7.76-2.92,18.35-11.65,23C282.1,288.19,278,288.82,273.69,288.82Zm23.61-104.7c-2.05,1.19-30.59,17.77-36.3,23.91s-13.47,27.41-12.95,33.66l0,.21-.14.16c-.93,1.1-1.89,2.7-1.77,3.86l0,.15-.07.13c-1.63,3.29-4.37,9.52-4.37,14.29,0,8.67,2.09,19.76,8,22.5,6.4,3,26,7.5,35,2.69,8.47-4.55,12-14.92,11.08-22.37l0-.35.31-.16a5.22,5.22,0,0,0,1-.69,3,3,0,0,0,.71-4.19l-.23-.38.34-.28c9.25-7.65,9.25-31.25,9.25-41.33,0-13-4.56-27.34-8.48-31.05A2.46,2.46,0,0,0,297.3,184.12Z" style="fill:#263238"></path><path d="M277.39,206.83s-4,5.68-1.33,12,10.36,11,6,15.38-4,6-2,6.36,3,1.33,0,1.67-7-.34-4.35,1.34,8.36,1.67,5,2.67-19.73-1-18.73,1,1,2.35,9.36,4.69,12.71.67,10.71,2.67-8,1.34-7.7,2.34a7.55,7.55,0,0,0,2,2.34s1.34.34-4.35,1S252,254,255.66,256.66s8.36,4,9,5.35-.34,4.68-2,5.69-11.71,12.7-7.36,21.07,20.74,5.35,25.42,2,8.69-13.38,9.7-17.39-1.67-5.35,0-5.68,2.67.66,2.34-1.68-2.34-4-2.34-5.35,1.34-1.34,4-3.68,3.68-3,3.68-5.68-.33-4.35,1.67-6,2.68-1.67,2.68-4-.67-4.68,0-7a55.86,55.86,0,0,0,1.67-6c1-4.35.6-11.3-2.71-16.35S283.08,201.14,277.39,206.83Z" style="opacity:0.17"></path><path d="M282.26,270.36a.5.5,0,0,1-.35-.15.5.5,0,0,1,0-.71c3.08-3.08,2.84-5.26,2.63-7.19a13,13,0,0,1-.1-1.37c0-2.43,3-4.21,5.34-5.63l.25-.16c.43-.25.58-.44.58-.54,0-.34-1-1.08-1.88-1.74-.7-.51-1.49-1.09-2.33-1.81a2.4,2.4,0,0,1-.91-1.71c-.1-1.69,1.58-3.53,3.72-5.86a32,32,0,0,0,4.66-6c3-5.58.42-20,.39-20.19a.5.5,0,1,1,1-.18c.11.61,2.68,15-.49,20.84a32.62,32.62,0,0,1-4.8,6.18c-1.82,2-3.54,3.86-3.46,5.13a1.4,1.4,0,0,0,.56,1c.81.69,1.59,1.26,2.27,1.77,1.41,1,2.33,1.71,2.29,2.58a1.83,1.83,0,0,1-1.06,1.36l-.26.15c-2,1.23-4.85,2.91-4.85,4.78a12,12,0,0,0,.1,1.27c.22,2,.5,4.58-2.92,8A.51.51,0,0,1,282.26,270.36Z" style="fill:#263238"></path><path d="M252.85,219.52c.78-.6,5,.27,5.89.41,5.85,1,8.3,2.34,6.63,6.86-1.06,2.87-1.46,8.22-4.51,10.29-1.94,1.32-10-.13-11.88-2.69s2.25-12.89,2.25-12.89A4.49,4.49,0,0,1,252.85,219.52Z" style="fill:#2C95EF"></path><path d="M258.3,238.08c-3.37,0-8.26-1.37-9.72-3.39-2-2.71,1.75-12.29,2.18-13.38a5.15,5.15,0,0,1,1.78-2.18h0c.62-.47,2.25-.4,5.82.24l.45.08c3.52.58,6.07,1.32,7.09,3.07.66,1.13.63,2.54-.07,4.45a26.31,26.31,0,0,0-.76,2.7c-.69,2.76-1.55,6.21-3.94,7.84A5.45,5.45,0,0,1,258.3,238.08Zm-5.14-18.16a4.24,4.24,0,0,0-1.45,1.72c-1.13,2.85-3.7,10.55-2.32,12.46,1.76,2.44,9.59,3.66,11.19,2.57,2.07-1.41,2.84-4.52,3.53-7.26a27.88,27.88,0,0,1,.79-2.8c.59-1.61.64-2.75.15-3.59-.71-1.21-2.56-2-6.39-2.59l-.46-.08C254.31,219.64,253.37,219.77,253.16,219.92Z" style="fill:#263238"></path><path d="M265.22,244.4a4.43,4.43,0,1,1-4.43-4.43A4.42,4.42,0,0,1,265.22,244.4Z" style="fill:#263238"></path><path d="M260.79,249.32a4.93,4.93,0,1,1,4.93-4.92A4.93,4.93,0,0,1,260.79,249.32Zm0-8.85a3.93,3.93,0,1,0,3.93,3.93A3.93,3.93,0,0,0,260.79,240.47Z" style="fill:#263238"></path><path d="M258.84,253.6a4.42,4.42,0,1,1-4.42-4.42A4.42,4.42,0,0,1,258.84,253.6Z" style="fill:#263238"></path><path d="M254.42,258.52a4.92,4.92,0,1,1,4.92-4.92A4.92,4.92,0,0,1,254.42,258.52Zm0-8.84a3.92,3.92,0,1,0,3.92,3.92A3.93,3.93,0,0,0,254.42,249.68Z" style="fill:#263238"></path><path d="M277,249.79c-10.4,0-16.76-2.73-17.25-2.95a2.67,2.67,0,0,1,2.17-4.89c.28.12,20.39,8.54,48.07-6.8a2.67,2.67,0,0,1,2.59,4.68C298.39,247.67,286.11,249.79,277,249.79Z" style="fill:#2C95EF"></path><path d="M277,250.29c-10.62,0-17.18-2.87-17.45-3a3.19,3.19,0,0,1-1.61-4.2,3.19,3.19,0,0,1,4.19-1.61c.19.09,20.21,8.42,47.61-6.77a3.19,3.19,0,0,1,2.42-.28A3.13,3.13,0,0,1,314,236a3.17,3.17,0,0,1-1.24,4.31C300.77,246.92,288.72,250.29,277,250.29Zm-16.15-8.07a2.17,2.17,0,0,0-2,3,2.15,2.15,0,0,0,1.15,1.2c.26.12,6.63,2.91,17,2.91,11.6,0,23.49-3.33,35.34-9.89a2.18,2.18,0,1,0-2.11-3.81c-27.84,15.43-48.3,6.91-48.5,6.82A2.15,2.15,0,0,0,260.8,242.22Z" style="fill:#263238"></path><path d="M282.43,264A59.42,59.42,0,0,1,253,255.86a2.68,2.68,0,0,1,2.87-4.52c.3.19,24.37,15,48.78,1.51a2.67,2.67,0,0,1,2.59,4.68A50.49,50.49,0,0,1,282.43,264Z" style="fill:#2C95EF"></path><path d="M282.43,264.48a60.31,60.31,0,0,1-29.72-8.2,3.16,3.16,0,0,1-1.39-2,3.21,3.21,0,0,1,.42-2.4,3.18,3.18,0,0,1,4.38-1c.24.15,24.12,14.87,48.26,1.5a3.17,3.17,0,1,1,3.08,5.55A51.07,51.07,0,0,1,282.43,264.48Zm-28-13.06a2.19,2.19,0,0,0-1.84,1,2.2,2.2,0,0,0,.67,3,59.26,59.26,0,0,0,29.18,8A50.2,50.2,0,0,0,307,257.1a2.18,2.18,0,1,0-2.11-3.81c-24.65,13.66-49-1.37-49.28-1.53A2.18,2.18,0,0,0,254.42,251.42Z" style="fill:#263238"></path><ellipse cx="271.21" cy="280.32" rx="16.6" ry="15.37" style="fill:#2C95EF"></ellipse><path d="M271.21,296.2c-9.43,0-17.1-7.12-17.1-15.88s7.67-15.87,17.1-15.87,17.1,7.12,17.1,15.87S280.64,296.2,271.21,296.2Zm0-30.75c-8.87,0-16.1,6.67-16.1,14.87s7.23,14.88,16.1,14.88,16.1-6.68,16.1-14.88S280.09,265.45,271.21,265.45Z" style="fill:#263238"></path><path d="M232.33,363s.89,6.68-1.11,9.13-10.47,6.91-15.15,10.47-4,4.91-3.35,7.58,7.36,4.23,19.39,4.23,24.06-9.13,26.07-12.25-4.24-13.82-4.68-17.83-.67-5.34-.67-5.34S241.69,367,232.33,363Z" style="fill:#fff"></path><path d="M232.11,394.9c-8.54,0-18.92-.8-19.87-4.61l-.11-.42c-.69-2.7-.84-4.26,3.63-7.67,2-1.52,4.63-3.17,7.18-4.78,3.49-2.19,6.78-4.26,7.89-5.61,1.85-2.26,1-8.69,1-8.76l-.12-.87.81.35c9,3.85,19.9-3.88,20-4l.65-.47.13.79c0,.06.23,1.4.68,5.38a32.56,32.56,0,0,0,2.16,6.43c1.88,4.69,3.83,9.55,2.44,11.72C256.54,385.63,244.23,394.9,232.11,394.9Zm.81-31.15c.17,1.92.38,6.61-1.32,8.69-1.21,1.48-4.57,3.59-8.12,5.83-2.54,1.59-5.16,3.24-7.11,4.72-4.16,3.17-3.86,4.33-3.27,6.63l.11.43c.23.9,2.26,3.85,18.9,3.85,11.76,0,23.66-8.93,25.65-12,1.11-1.74-.91-6.77-2.53-10.81a32.66,32.66,0,0,1-2.23-6.69c-.26-2.33-.44-3.76-.55-4.54C249.94,361.47,241,366.66,232.92,363.75Z" style="fill:#263238"></path><path d="M235.67,364.77a15.4,15.4,0,0,1-1.78,8.24c-2.23,4-11.58,6-12.92,8.69s3.56,3.57,10.92,0,11.14-11.36,11.58-15.15S238.13,362.32,235.67,364.77Z" style="fill:#fff"></path><path d="M223.59,384.56a4,4,0,0,1-2.85-.86,1.78,1.78,0,0,1-.22-2.22c.69-1.37,3-2.45,5.59-3.71,2.91-1.38,6.21-2.95,7.34-5a15.08,15.08,0,0,0,1.73-7.95l0-.24.17-.16a6.45,6.45,0,0,1,6.8-1.17,3.16,3.16,0,0,1,1.85,3.36c-.49,4.19-4.61,12-11.87,15.54A21,21,0,0,1,223.59,384.56ZM236.19,365a16,16,0,0,1-1.86,8.29c-1.3,2.33-4.74,4-7.79,5.42-2.36,1.12-4.59,2.19-5.12,3.25-.35.69-.07,1,0,1.07.89.9,4.65.95,10.22-1.75,6.92-3.35,10.84-10.79,11.31-14.76a2.16,2.16,0,0,0-1.3-2.34A5.5,5.5,0,0,0,236.19,365Z" style="fill:#263238"></path><path d="M258.18,382.15c.53-.84.47-2.22.1-3.86-6.53,4.85-15.72,10.56-23.72,11.43a38.52,38.52,0,0,1-21.8-3.84c-.86,1.48-.45,2.63,0,4.29.67,2.67,7.36,4.23,19.39,4.23S256.17,385.27,258.18,382.15Z" style="fill:#fff"></path><path d="M232.11,394.9c-8.54,0-18.92-.8-19.87-4.61l-.11-.42c-.37-1.45-.69-2.71.2-4.24l.24-.42.43.22a37.76,37.76,0,0,0,21.51,3.8c8-.87,17.15-6.65,23.47-11.34l.61-.46.17.75c.46,2,.41,3.35-.16,4.24C256.54,385.63,244.23,394.9,232.11,394.9ZM213,386.55a4.55,4.55,0,0,0,.12,3.07l.11.43c.23.9,2.26,3.85,18.9,3.85,11.76,0,23.66-8.93,25.65-12h0a4,4,0,0,0,.18-2.72c-6.39,4.67-15.42,10.2-23.33,11.06A38.94,38.94,0,0,1,213,386.55Z" style="fill:#263238"></path><ellipse cx="242.05" cy="363.05" rx="12.68" ry="8.83" transform="translate(-41.25 31.18) rotate(-6.79)" style="fill:#2C95EF"></ellipse><path d="M240.93,372.45a15.57,15.57,0,0,1-7.28-1.69c-2.73-1.46-4.39-3.64-4.69-6.15a8.18,8.18,0,0,1,3.11-7.07,16.35,16.35,0,0,1,8.87-3.76c7.22-.86,13.58,2.6,14.19,7.71a8.2,8.2,0,0,1-3.11,7.08,16.34,16.34,0,0,1-8.87,3.75A18.6,18.6,0,0,1,240.93,372.45Zm2.22-17.8a16.63,16.63,0,0,0-2.09.13,15.35,15.35,0,0,0-8.33,3.5,6.62,6.62,0,0,0,1.39,11.59,16.31,16.31,0,0,0,17.24-2.05,7.25,7.25,0,0,0,2.78-6.21C253.65,357.53,248.92,354.65,243.15,354.65Z" style="fill:#263238"></path><path d="M228.77,320.21s-5.66,8.87-2.54,28.7c1.64,10.43,3.8,17.53,10.26,18.42s16.53-1.71,17.95-7.41c1.2-4.79,7.82-27.14-.57-33.91C249.06,322.13,237.46,313.3,228.77,320.21Z" style="fill:#fff"></path><path d="M239.12,368a19.22,19.22,0,0,1-2.7-.18c-6.6-.91-8.91-7.59-10.68-18.83-3.11-19.79,2.37-28.68,2.61-29.05l.11-.12c9.34-7.43,21.67,2.52,25.73,5.8,8.05,6.5,2.79,26.58,1.06,33.17-.13.5-.24.92-.32,1.25C253.6,365.35,245.5,368,239.12,368Zm-10-47.46c-.5.86-5.33,9.81-2.42,28.29,1.69,10.78,3.84,17.18,9.83,18s16-1.55,17.4-7c.08-.34.19-.76.32-1.26,1.69-6.44,6.83-26.05-.72-32.14C249.67,323.26,237.86,313.72,229.15,320.54Z" style="fill:#263238"></path><path d="M240.94,329.23s-9.36-2.67-8.36-.33,4.68,3,8,3.68,11.17,2.89,7.76,4.62-6.43,3.74-4.09,5.08,5.83,3.56,4.09,4.29-1.41,4.07-.74,5.74,1.34,3,.33,5.35.34,9,2,1a162.52,162.52,0,0,0,2.68-19.4c.33-4,0-7-1-7.36a31.38,31.38,0,0,0-5.68-1.34A27.71,27.71,0,0,1,240.94,329.23Z" style="opacity:0.17"></path><path d="M284.69,293.69s3.34-12-4.68-21.61-28.74,4.46-38.32,18.72-11.81,24.5-11.59,27.85,4.46,8,18.72,7.57S280.46,312.41,284.69,293.69Z" style="fill:#fff"></path><path d="M246.92,326.75c-15.94,0-17.22-6.68-17.32-8.07-.22-3.4,1.93-13.65,11.67-28.16,6.85-10.19,20.57-21.53,30.79-22.07a9.64,9.64,0,0,1,8.34,3.31c8,9.52,4.9,21.57,4.78,22.05-4.34,19.15-22.29,32.47-36.34,32.91Zm25.88-57.32-.69,0c-9.91.52-23.29,11.63-30,21.63-8.9,13.25-11.75,23.72-11.5,27.53.24,3.54,5.15,7.52,18.2,7.11,13.69-.42,31.18-13.44,35.41-32.14v0c0-.12,3.17-11.9-4.58-21.16A8.47,8.47,0,0,0,272.8,269.43Z" style="fill:#263238"></path><path d="M283.08,282.41s-7.36-12-8.7-10.7,5,11,1.34,12.37-8.69-3.68-9.36-2.34,7,7,3.34,11-10.7,5.35-11.37,10.7-2,9.37-3.68,9.7-4.35,0-4.35,2,2,2.34,2,3.34-1.08,1.55-4.39,1.28-4.3.06-4.3,1.4a13.68,13.68,0,0,0,.66,3.34s7.47,4.92,9.59,1.46,3.12-4.47,4.46-6.47,8.7-10.37,12-14.05,3-5.69,4.68-5.35,1.68-2,1.68-3.68a2,2,0,0,1,1.33-2,8.29,8.29,0,0,0,1.34-3.34C279.74,289.1,285.42,287.43,283.08,282.41Z" style="opacity:0.17"></path><path d="M248.37,365.8a.54.54,0,0,1-.21-.05.5.5,0,0,1-.25-.66s2.19-4.86,2.19-8.71a16,16,0,0,0-1.14-5.56,20.32,20.32,0,0,1-1.09-4.19,16.14,16.14,0,0,1,.11-4.18,13.4,13.4,0,0,0-.1-5.14,19.2,19.2,0,0,0-1.47-4c-.9-2-1.68-3.68-.7-5.32a15.48,15.48,0,0,1,.87-1.29.5.5,0,0,1,.81.59,14.52,14.52,0,0,0-.82,1.22c-.71,1.18-.1,2.53.75,4.38a20.64,20.64,0,0,1,1.54,4.17,14.44,14.44,0,0,1,.11,5.49,14.75,14.75,0,0,0-.11,3.92,19.7,19.7,0,0,0,1,4,17.21,17.21,0,0,1,1.19,5.88c0,4.07-2.18,8.92-2.28,9.12A.49.49,0,0,1,248.37,365.8Z" style="fill:#263238"></path><path d="M247,327.53a.53.53,0,0,1-.29-.1.51.51,0,0,1-.11-.7l.52-.69c.61-.8,1.25-1.62,1.18-2,0,0,0-.12-.19-.23-.85-.56-2.58-2.22-2.2-3.48.21-.66.89-1,2-1a23.55,23.55,0,0,1,2.36.15c1.39.13,3,.28,3.39-.21a1.36,1.36,0,0,0,0-1.09c-.55-1.92,1.5-3.56,4.9-6.28a71.62,71.62,0,0,0,11.25-10.68c8.29-10,11-25.92,11-26.07a.5.5,0,0,1,.57-.42.51.51,0,0,1,.42.58c0,.16-2.8,16.31-11.26,26.55a73,73,0,0,1-11.39,10.82c-3,2.38-4.94,3.95-4.57,5.22a2.08,2.08,0,0,1-.22,2c-.75.9-2.37.74-4.24.56-.76-.07-1.55-.14-2.27-.14s-1,.16-1.07.29c-.14.45.82,1.71,1.8,2.36a1.33,1.33,0,0,1,.62.9c.13.82-.53,1.69-1.37,2.79-.17.21-.34.44-.51.67A.49.49,0,0,1,247,327.53Z" style="fill:#263238"></path><path d="M230.76,313.44s5,10.64,25.68,11.4c0,0,1.36.76.15,4.25-.12.34-3.17.58-3.5.63a74.69,74.69,0,0,1-8.32.86c-5,.21-12.83.38-16.11-4.25C225.65,322.07,227,316.67,230.76,313.44Z" style="fill:#263238"></path><path d="M241.31,331.17c-4.55,0-10.29-.64-13.06-4.55-3.35-4.75-1.44-10.41,2.18-13.56l.5-.43.28.6c0,.1,5.17,10.37,25.25,11.11h.12l.1.06c.18.1,1.7,1.07.38,4.86-.15.44-.63.61-3.49.91l-.4.05a76.89,76.89,0,0,1-8.38.86C243.79,331.12,242.6,331.17,241.31,331.17Zm-10.68-16.93c-3,2.91-4.43,7.74-1.56,11.8,3.24,4.58,11.33,4.23,15.68,4a75.15,75.15,0,0,0,8.27-.85l.45-.05a19.09,19.09,0,0,0,2.7-.4c.79-2.36.28-3.22.08-3.45C238.2,324.62,232,316.53,230.63,314.24Z" style="fill:#263238"></path><path d="M259.29,212.15a3.57,3.57,0,0,1-2.29-6.3c.93-.78,23-19.19,42.66-26.89a3.57,3.57,0,0,1,2.6,6.65c-18.6,7.27-40.45,25.52-40.67,25.7A3.59,3.59,0,0,1,259.29,212.15Z" style="fill:#2C95EF"></path><path d="M259.29,212.65a4.07,4.07,0,0,1-2.61-7.19c.93-.78,23.06-19.25,42.8-27a4.06,4.06,0,0,1,5.27,2.31,4.08,4.08,0,0,1-2.31,5.27c-18.52,7.23-40.31,25.43-40.53,25.61A4,4,0,0,1,259.29,212.65ZM301,179.22a3.09,3.09,0,0,0-1.12.21c-19.59,7.65-41.59,26-42.52,26.8a3.07,3.07,0,0,0-.38,4.32,3.15,3.15,0,0,0,4.32.38c.22-.19,22.15-18.49,40.82-25.79a3.06,3.06,0,0,0,.11-5.66A3,3,0,0,0,301,179.22Z" style="fill:#263238"></path><ellipse cx="293.94" cy="208.58" rx="18.16" ry="17.6" style="fill:#2C95EF"></ellipse><path d="M293.94,226.68c-10.29,0-18.66-8.12-18.66-18.1s8.37-18.1,18.66-18.1,18.66,8.12,18.66,18.1S304.23,226.68,293.94,226.68Zm0-35.2c-9.74,0-17.66,7.67-17.66,17.1s7.92,17.1,17.66,17.1,17.66-7.67,17.66-17.1S303.68,191.48,293.94,191.48Z" style="fill:#263238"></path><path d="M304.54,194.27s-8.24-5-17.22,2.74-6.49,21,1,26.22,23.47,8.24,25.22,9.48,6.24,4.5,15.48.75,7.49-12,3.49-19S312.78,196.76,304.54,194.27Z" style="fill:#fff"></path><path d="M321.09,235.71a12.5,12.5,0,0,1-7.83-2.58,35,35,0,0,0-5.41-1.76c-5.87-1.66-14.73-4.17-19.82-7.73a17.4,17.4,0,0,1-6.94-13.23,16.74,16.74,0,0,1,5.9-13.78c8.76-7.53,17-3.26,17.75-2.83,8.39,2.57,24.13,13.32,28.2,20.44,3,5.32,4,10,2.78,13.53-.94,2.71-3.13,4.78-6.52,6.16A21.69,21.69,0,0,1,321.09,235.71Zm-23-42.55a16.67,16.67,0,0,0-16,17.2,16.37,16.37,0,0,0,6.51,12.46c4.95,3.46,13.72,6,19.52,7.59,3.32.94,5.08,1.46,5.7,1.9,1.67,1.19,6.05,4.32,15,.69,3.11-1.26,5.11-3.13,5.95-5.56,1.42-4.1-.68-9.17-2.7-12.7-3.87-6.78-19.55-17.54-27.67-20l-.12-.05A13,13,0,0,0,298.05,193.16Z" style="fill:#263238"></path><path d="M290.55,196.6s-5.64,4.56-5.37,9.93,4.57,7.79,8.86,7.79,8,1.88,9.13,3.75,1.88,1.88,4,1.88.81,1.35,4.57,1.35,4.83-.27,5.9-.81-1.34-.8,3-.54,11.27.54,9.66-3.22-14.23-14-20.4-17.45S294.58,193.65,290.55,196.6Z" style="opacity:0.17"></path><path d="M313.29,227.75a3.62,3.62,0,0,1-3.6-2.76c-.27-1.08-3.27-1.72-7.42-2.61-1.44-.31-3-.66-4.84-1.08A65.81,65.81,0,0,1,282,214.93a.5.5,0,0,1,.51-.87,64,64,0,0,0,15.2,6.27c1.78.42,3.39.76,4.82,1.07,5,1.07,7.76,1.66,8.18,3.35a2.56,2.56,0,0,0,1.28,1.66,3.06,3.06,0,0,0,2.18.23,11.28,11.28,0,0,1,4.27,0,.5.5,0,1,1-.19,1,10.73,10.73,0,0,0-3.84,0A4.43,4.43,0,0,1,313.29,227.75Z" style="fill:#263238"></path><ellipse cx="315.71" cy="211.88" rx="5.35" ry="4.91" style="fill:#263238"></ellipse><path d="M315.71,217.28a5.42,5.42,0,1,1,5.85-5.4A5.65,5.65,0,0,1,315.71,217.28Zm0-9.81a4.43,4.43,0,1,0,4.85,4.41A4.65,4.65,0,0,0,315.71,207.47Z" style="fill:#263238"></path><path d="M327.51,214.74s-13.14,6.95-14.23,20.47c-.34,4.24,22.62.88,26-1.75,5.9-4.64,1.44-13.11-.79-15.79C334.73,213.2,330.51,212.24,327.51,214.74Z" style="fill:#263238"></path><path d="M319.5,237.73a13.26,13.26,0,0,1-5.63-.86,1.73,1.73,0,0,1-1.09-1.7c1.07-13.22,13.57-20.36,14.45-20.85a6.11,6.11,0,0,1,5.6-1.21,12.1,12.1,0,0,1,6,4.24c1.76,2.12,4.23,6.78,3.79,11a7.86,7.86,0,0,1-3.08,5.54C337.32,235.61,326.63,237.73,319.5,237.73Zm11.65-23.84a5.08,5.08,0,0,0-3.32,1.23l-.08.06c-.13.07-12.91,7-14,20.07,0,.11,0,.42.57.74,4,2.14,21.95-.85,24.59-2.92a6.9,6.9,0,0,0,2.69-4.86c.41-3.87-1.9-8.23-3.56-10.22a11.16,11.16,0,0,0-5.48-3.91A5.59,5.59,0,0,0,331.15,213.89Zm-3.64.85h0Z" style="fill:#263238"></path><path d="M310.53,268.17s-7,3-9.73,5.49-8.24,9.24-6.74,11.48,5.24.25,6.24-.75,5-5.49,5-5.49-2,13.48-1.5,15.48,1.5,2.5,3.5,2.5,3.74-2.75,4-4.75,1.25-7.74,1.25-7.74,2.5,4.5,2.25,8.74,1.5,6,4,5,3-4.74,3-4.74a10.54,10.54,0,0,0,6-4c1.31-1.9,3.75-3.25,2.25-10s-3.25-9-3.25-9S316.53,269.16,310.53,268.17Z" style="fill:#fff"></path><path d="M317.48,298.9a2.68,2.68,0,0,1-1.6-.51c-1.2-.86-1.75-2.69-1.6-5.29a16.53,16.53,0,0,0-1.52-7.07c-.31,1.85-.82,4.85-1,6.17-.26,2.11-2.14,5.18-4.49,5.18-2,0-3.38-.48-4-2.88-.42-1.67.72-10.26,1.25-14-1.26,1.41-3.23,3.6-3.91,4.28a7.29,7.29,0,0,1-4.91,1.9,2.75,2.75,0,0,1-2.1-1.23c-1.87-2.81,4.78-10.27,6.82-12.13,2.78-2.53,9.59-5.46,9.88-5.58l.13-.06.15,0c5.91,1,16.1,2.23,16.2,2.25l.21,0,.13.17c.07.09,1.83,2.41,3.34,9.18,1.31,5.92-.34,7.92-1.67,9.54-.23.28-.46.55-.66.84a10.94,10.94,0,0,1-6,4.12c-.2,1-1,3.88-3.25,4.8A4,4,0,0,1,317.48,298.9Zm-5.2-16,.69,1.24c.1.19,2.56,4.67,2.31,9-.13,2.21.29,3.78,1.18,4.42a2.14,2.14,0,0,0,2.13.08c2.2-.88,2.68-4.31,2.68-4.35l.05-.35.35-.07a10.12,10.12,0,0,0,5.68-3.79c.21-.31.46-.6.71-.91,1.25-1.52,2.67-3.24,1.46-8.68s-2.64-8-3-8.63c-1.52-.19-10.42-1.29-15.88-2.2-1,.43-7,3.12-9.47,5.35-3,2.76-7.82,9.09-6.66,10.84a1.76,1.76,0,0,0,1.37.79A6.42,6.42,0,0,0,300,284c1-1,4.93-5.43,5-5.47l1.11-1.25-.24,1.65c-.8,5.38-1.86,13.89-1.51,15.29.41,1.64,1.08,2.12,3,2.12,1.72,0,3.28-2.58,3.5-4.31.25-2,1.21-7.53,1.25-7.76Z" style="fill:#263238"></path><path d="M311.38,269.85s-8.52,4.72-7.43,5.63,3.08,1.26,3.81,5.07,1.27,4.17,2.9,1.82,3.26-.73,4.71,2.72,3.09,1.45,3.81-1.82,3.63-.36,4.36,1.82.72-2.18,1.08-4.17,3.63,3.8,4.18,2.17-3.09-11.24-4.18-11.79S311.38,269.85,311.38,269.85Z" style="opacity:0.17"></path><path d="M310.28,262.17s-3.49,3.75-.49,7.24,12.23,4.25,16,3.25,3.25-7.24,1.5-8.74S310.28,262.17,310.28,262.17Z" style="fill:#263238"></path><path d="M321.77,273.57c-4.39,0-10-1.11-12.36-3.83-3.25-3.79.47-7.87.51-7.91l.15-.16h.22c2.58.05,15.5.33,17.3,1.87,1.23,1.06,1.83,3.87,1.31,6.14a4.27,4.27,0,0,1-3,3.46A16.84,16.84,0,0,1,321.77,273.57Zm-11.26-10.89c-.6.72-2.71,3.65-.34,6.41,2.85,3.33,12,4,15.46,3.09a3.36,3.36,0,0,0,2.3-2.72c.47-2.07-.14-4.43-1-5.16C325.78,263.31,316.35,262.78,310.51,262.68Z" style="fill:#263238"></path><path d="M313.28,235.21s-4.74,24.72-3.49,28.46,9,6.74,14.48,5.49,13-13.48,15.47-27.21S342,230,336,229,319.52,230.22,313.28,235.21Z" style="fill:#fff"></path><path d="M321.55,270c-5.23,0-11.11-2.74-12.24-6.12-1.27-3.83,3.29-27.7,3.48-28.71l0-.19.14-.11c6.31-5,17-7.35,23.11-6.34.67.11,1.26.18,1.79.25,1.64.21,2.73.35,3.36,1.21,1,1.33.49,3.93-.91,11.65l-.08.45c-2.43,13.34-9.84,26.24-15.86,27.61A12.46,12.46,0,0,1,321.55,270Zm-7.81-34.46c-1.34,7-4.46,25.08-3.48,28,1.18,3.55,8.71,6.34,13.9,5.17,5-1.15,12.55-12.86,15.09-26.82l.08-.45c1.28-7,1.81-9.9,1.09-10.88-.37-.51-1.24-.62-2.68-.81-.53-.07-1.14-.14-1.82-.26C330.11,228.5,319.86,230.69,313.74,235.49Z" style="fill:#263238"></path><path d="M321,232.66c1.91.69,4.69,3.41,3.16,5.82-1.88,3-4.3,3.75-4.57,6.17s1.08,7.78,1.08,9.13.8,4.83-1.61,6.17-1.88,3.76-1.88,4.56,0,.54-.54,1.88,4,3.22,7.25,1.08a34,34,0,0,0,12.88-20.4c1.24-6.35,2.27-12.64,1.88-16.38A42,42,0,0,0,321,232.66Z" style="opacity:0.17"></path><path d="M311.49,266.52h-.1a.5.5,0,0,1-.39-.59,34.43,34.43,0,0,0,.48-9c-.48-4.86,1.63-10.4,3.76-15.19,2.58-5.81,2.14-9.11,2.13-9.14a.51.51,0,0,1,.42-.57.5.5,0,0,1,.57.42c0,.14.51,3.58-2.21,9.7-2.08,4.66-4.13,10.06-3.67,14.68a35,35,0,0,1-.5,9.26A.5.5,0,0,1,311.49,266.52Z" style="fill:#263238"></path><path d="M321.77,293.38a54.73,54.73,0,0,0-.5-10" style="fill:#fff"></path><path d="M321.77,293.88h0a.5.5,0,0,1-.48-.52,54.73,54.73,0,0,0-.49-9.87.5.5,0,0,1,.39-.59.51.51,0,0,1,.59.4,54.63,54.63,0,0,1,.51,10.1A.5.5,0,0,1,321.77,293.88Z" style="fill:#263238"></path><path d="M326,291.13s1.5-5.24.25-9.23" style="fill:#fff"></path><path d="M326,291.63a.3.3,0,0,1-.13,0,.5.5,0,0,1-.35-.61c0-.05,1.44-5.15.26-8.95a.49.49,0,0,1,.32-.63.5.5,0,0,1,.63.33c1.28,4.09-.18,9.3-.25,9.52A.49.49,0,0,1,326,291.63Z" style="fill:#263238"></path><path d="M297.43,194.48c-3.89,0-11.37,6.52-10.64,10.76.48,2.78,12.45,8.83,14.65,6.64,1.34-1.34,8-7.14,11.15-9.37S303.23,194.49,297.43,194.48Z" style="fill:#fff"></path><path d="M299.88,212.85a11.3,11.3,0,0,1-3.26-.62c-3.85-1.23-9.93-4.6-10.33-6.9-.29-1.69.56-3.81,2.39-6,2.57-3.06,6.33-5.37,8.75-5.37h0c4.86,0,15.12,4.23,16.07,7.19a1.48,1.48,0,0,1-.62,1.75c-3.12,2.23-9.8,8-11.09,9.31A2.61,2.61,0,0,1,299.88,212.85ZM297.43,195c-2.12,0-5.62,2.2-8,5-1.63,1.94-2.4,3.77-2.16,5.17s5.39,4.76,9.64,6.11c2.09.67,3.66.77,4.17.25,1.3-1.3,8.05-7.16,11.21-9.42.3-.21.32-.4.25-.62-.7-2.18-10-6.5-15.12-6.5Z" style="fill:#263238"></path></g></svg>